<svg width="1050" height="300" viewBox="0 0 1050 300" fill="none" xmlns="http://www.w3.org/2000/svg">
<path d="M270 0C286.569 3.86556e-06 300 13.4315 300 30V270C300 286.569 286.569 300 270 300H30C13.4315 300 2.41612e-07 286.569 0 270V30C3.8658e-06 13.4315 13.4315 2.41598e-07 30 0H270ZM125 229C121.686 229 119 231.686 119 235C119 238.314 121.686 241 125 241C128.314 241 131 238.314 131 235C131 231.686 128.314 229 125 229ZM174 229C170.686 229 168 231.686 168 235C168 238.314 170.686 241 174 241C177.314 241 180 238.314 180 235C180 231.686 177.314 229 174 229ZM83 197C77.4772 197 73 201.477 73 207C73 212.523 77.4772 217 83 217C88.5228 217 93 212.523 93 207C93 201.477 88.5228 197 83 197ZM125 197C119.477 197 115 201.477 115 207C115 212.523 119.477 217 125 217C130.523 217 135 212.523 135 207C135 201.477 130.523 197 125 197ZM174 197C168.477 197 164 201.477 164 207C164 212.523 168.477 217 174 217C179.523 217 184 212.523 184 207C184 201.477 179.523 197 174 197ZM216 197C210.477 197 206 201.477 206 207C206 212.523 210.477 217 216 217C221.523 217 226 212.523 226 207C226 201.477 221.523 197 216 197ZM125 155C116.716 155 110 161.716 110 170C110 178.284 116.716 185 125 185C133.284 185 140 178.284 140 170C140 161.716 133.284 155 125 155ZM174 155C165.716 155 159 161.716 159 170C159 178.284 165.716 185 174 185C182.284 185 189 178.284 189 170C189 161.716 182.284 155 174 155ZM83 160C77.4772 160 73 164.477 73 170C73 175.523 77.4772 180 83 180C88.5228 180 93 175.523 93 170C93 164.477 88.5228 160 83 160ZM216 160C210.477 160 206 164.477 206 170C206 175.523 210.477 180 216 180C221.523 180 226 175.523 226 170C226 164.477 221.523 160 216 160ZM58 164C54.6863 164 52 166.686 52 170C52 173.314 54.6863 176 58 176C61.3137 176 64 173.314 64 170C64 166.686 61.3137 164 58 164ZM243 164C239.686 164 237 166.686 237 170C237 173.314 239.686 176 243 176C246.314 176 249 173.314 249 170C249 166.686 246.314 164 243 164ZM125 113C116.716 113 110 119.716 110 128C110 136.284 116.716 143 125 143C133.284 143 140 136.284 140 128C140 119.716 133.284 113 125 113ZM174 113C165.716 113 159 119.716 159 128C159 136.284 165.716 143 174 143C182.284 143 189 136.284 189 128C189 119.716 182.284 113 174 113ZM83 118C77.4772 118 73 122.477 73 128C73 133.523 77.4772 138 83 138C88.5228 138 93 133.523 93 128C93 122.477 88.5228 118 83 118ZM216 118C210.477 118 206 122.477 206 128C206 133.523 210.477 138 216 138C221.523 138 226 133.523 226 128C226 122.477 221.523 118 216 118ZM58 122C54.6863 122 52 124.686 52 128C52 131.314 54.6863 134 58 134C61.3137 134 64 131.314 64 128C64 124.686 61.3137 122 58 122ZM243 122C239.686 122 237 124.686 237 128C237 131.314 239.686 134 243 134C246.314 134 249 131.314 249 128C249 124.686 246.314 122 243 122ZM83 82C77.4772 82 73 86.4772 73 92C73 97.5228 77.4772 102 83 102C88.5228 102 93 97.5228 93 92C93 86.4772 88.5228 82 83 82ZM125 82C119.477 82 115 86.4772 115 92C115 97.5228 119.477 102 125 102C130.523 102 135 97.5228 135 92C135 86.4772 130.523 82 125 82ZM174 82C168.477 82 164 86.4772 164 92C164 97.5228 168.477 102 174 102C179.523 102 184 97.5228 184 92C184 86.4772 179.523 82 174 82ZM216 82C210.477 82 206 86.4772 206 92C206 97.5228 210.477 102 216 102C221.523 102 226 97.5228 226 92C226 86.4772 221.523 82 216 82ZM125 60C121.686 60 119 62.6863 119 66C119 69.3137 121.686 72 125 72C128.314 72 131 69.3137 131 66C131 62.6863 128.314 60 125 60ZM174 60C170.686 60 168 62.6863 168 66C168 69.3137 170.686 72 174 72C177.314 72 180 69.3137 180 66C180 62.6863 177.314 60 174 60Z" fill="url(#paint0_linear_4_6)"/>
<path d="M373.994 168.543C373.994 167.176 373.783 165.955 373.359 164.881C372.969 163.774 372.236 162.781 371.162 161.902C370.12 160.991 368.639 160.112 366.719 159.266C364.831 158.387 362.389 157.475 359.395 156.531C356.074 155.49 352.982 154.318 350.117 153.016C347.253 151.714 344.73 150.2 342.549 148.475C340.4 146.749 338.724 144.764 337.52 142.518C336.315 140.239 335.713 137.602 335.713 134.607C335.713 131.678 336.331 129.008 337.568 126.6C338.838 124.191 340.628 122.124 342.939 120.398C345.251 118.641 347.969 117.29 351.094 116.346C354.251 115.402 357.734 114.93 361.543 114.93C366.816 114.93 371.374 115.89 375.215 117.811C379.089 119.731 382.083 122.335 384.199 125.623C386.315 128.911 387.373 132.605 387.373 136.707H373.994C373.994 134.493 373.522 132.54 372.578 130.848C371.667 129.155 370.267 127.82 368.379 126.844C366.523 125.867 364.18 125.379 361.348 125.379C358.613 125.379 356.335 125.786 354.512 126.6C352.721 127.413 351.37 128.52 350.459 129.92C349.58 131.32 349.141 132.882 349.141 134.607C349.141 135.91 349.45 137.081 350.068 138.123C350.687 139.132 351.615 140.092 352.852 141.004C354.089 141.883 355.618 142.713 357.441 143.494C359.297 144.243 361.445 144.992 363.887 145.74C367.793 146.912 371.211 148.214 374.141 149.646C377.103 151.079 379.561 152.706 381.514 154.529C383.499 156.352 384.98 158.403 385.957 160.682C386.966 162.96 387.471 165.548 387.471 168.445C387.471 171.505 386.868 174.24 385.664 176.648C384.46 179.057 382.734 181.108 380.488 182.801C378.242 184.493 375.54 185.779 372.383 186.658C369.258 187.537 365.758 187.977 361.885 187.977C358.434 187.977 355.016 187.521 351.631 186.609C348.278 185.665 345.234 184.266 342.5 182.41C339.766 180.522 337.585 178.146 335.957 175.281C334.329 172.384 333.516 168.999 333.516 165.125H346.992C346.992 167.371 347.35 169.292 348.066 170.887C348.815 172.449 349.857 173.735 351.191 174.744C352.559 175.721 354.154 176.437 355.977 176.893C357.799 177.348 359.769 177.576 361.885 177.576C364.619 177.576 366.865 177.202 368.623 176.453C370.413 175.672 371.748 174.598 372.627 173.23C373.538 171.863 373.994 170.301 373.994 168.543ZM449.941 176.453V187H412.148V176.453H449.941ZM416.25 115.906V187H402.822V115.906H416.25ZM445.01 145.252V155.555H412.148V145.252H445.01ZM449.795 115.906V126.502H412.148V115.906H449.795ZM489.268 173.084L506.992 115.906H521.885L496.787 187H486.875L489.268 173.084ZM472.91 115.906L490.537 173.084L493.076 187H483.066L458.066 115.906H472.91ZM581.328 176.453V187H543.535V176.453H581.328ZM547.637 115.906V187H534.209V115.906H547.637ZM576.396 145.252V155.555H543.535V145.252H576.396ZM581.182 115.906V126.502H543.535V115.906H581.182ZM652.783 115.906V187H639.307L609.082 137.684V187H595.654V115.906H609.082L639.404 165.271V115.906H652.783ZM714.785 115.906V187H701.357V115.906H714.785ZM743.447 146.619V157.215H711.27V146.619H743.447ZM747.207 115.906V126.502H711.27V115.906H747.207ZM806.455 176.453V187H770.713V176.453H806.455ZM774.766 115.906V187H761.338V115.906H774.766ZM849.688 126.697L829.424 187H815.215L841.777 115.906H850.859L849.688 126.697ZM866.631 187L846.27 126.697L845.049 115.906H854.18L880.889 187H866.631ZM865.703 160.584V171.18H827.568V160.584H865.703ZM947.803 150.232V177.918C946.761 179.253 945.117 180.701 942.871 182.264C940.658 183.826 937.76 185.177 934.18 186.316C930.599 187.423 926.204 187.977 920.996 187.977C916.471 187.977 912.337 187.228 908.594 185.73C904.85 184.201 901.628 181.971 898.926 179.041C896.224 176.111 894.141 172.531 892.676 168.299C891.211 164.067 890.479 159.233 890.479 153.797V149.109C890.479 143.673 891.162 138.839 892.529 134.607C893.929 130.376 895.915 126.795 898.486 123.865C901.09 120.936 904.199 118.706 907.812 117.176C911.458 115.646 915.527 114.881 920.02 114.881C926.042 114.881 930.99 115.874 934.863 117.859C938.77 119.845 941.764 122.579 943.848 126.062C945.931 129.513 947.233 133.484 947.754 137.977H934.668C934.31 135.503 933.594 133.338 932.52 131.482C931.445 129.594 929.915 128.13 927.93 127.088C925.977 126.014 923.438 125.477 920.312 125.477C917.676 125.477 915.348 125.997 913.33 127.039C911.312 128.081 909.619 129.594 908.252 131.58C906.885 133.566 905.843 136.023 905.127 138.953C904.443 141.883 904.102 145.236 904.102 149.012V153.797C904.102 157.605 904.492 160.991 905.273 163.953C906.055 166.883 907.178 169.357 908.643 171.375C910.14 173.361 911.979 174.874 914.16 175.916C916.374 176.925 918.88 177.43 921.68 177.43C924.219 177.43 926.318 177.218 927.979 176.795C929.671 176.339 931.022 175.802 932.031 175.184C933.04 174.565 933.822 173.963 934.375 173.377V160.047H920.264V150.232H947.803ZM1002.71 168.543C1002.71 167.176 1002.49 165.955 1002.07 164.881C1001.68 163.774 1000.95 162.781 999.873 161.902C998.831 160.991 997.35 160.112 995.43 159.266C993.542 158.387 991.1 157.475 988.105 156.531C984.785 155.49 981.693 154.318 978.828 153.016C975.964 151.714 973.441 150.2 971.26 148.475C969.111 146.749 967.435 144.764 966.23 142.518C965.026 140.239 964.424 137.602 964.424 134.607C964.424 131.678 965.042 129.008 966.279 126.6C967.549 124.191 969.339 122.124 971.65 120.398C973.962 118.641 976.68 117.29 979.805 116.346C982.962 115.402 986.445 114.93 990.254 114.93C995.527 114.93 1000.08 115.89 1003.93 117.811C1007.8 119.731 1010.79 122.335 1012.91 125.623C1015.03 128.911 1016.08 132.605 1016.08 136.707H1002.71C1002.71 134.493 1002.23 132.54 1001.29 130.848C1000.38 129.155 998.978 127.82 997.09 126.844C995.234 125.867 992.891 125.379 990.059 125.379C987.324 125.379 985.046 125.786 983.223 126.6C981.432 127.413 980.081 128.52 979.17 129.92C978.291 131.32 977.852 132.882 977.852 134.607C977.852 135.91 978.161 137.081 978.779 138.123C979.398 139.132 980.326 140.092 981.562 141.004C982.799 141.883 984.329 142.713 986.152 143.494C988.008 144.243 990.156 144.992 992.598 145.74C996.504 146.912 999.922 148.214 1002.85 149.646C1005.81 151.079 1008.27 152.706 1010.22 154.529C1012.21 156.352 1013.69 158.403 1014.67 160.682C1015.68 162.96 1016.18 165.548 1016.18 168.445C1016.18 171.505 1015.58 174.24 1014.38 176.648C1013.17 179.057 1011.45 181.108 1009.2 182.801C1006.95 184.493 1004.25 185.779 1001.09 186.658C997.969 187.537 994.469 187.977 990.596 187.977C987.145 187.977 983.727 187.521 980.342 186.609C976.989 185.665 973.945 184.266 971.211 182.41C968.477 180.522 966.296 178.146 964.668 175.281C963.04 172.384 962.227 168.999 962.227 165.125H975.703C975.703 167.371 976.061 169.292 976.777 170.887C977.526 172.449 978.568 173.735 979.902 174.744C981.27 175.721 982.865 176.437 984.688 176.893C986.51 177.348 988.48 177.576 990.596 177.576C993.33 177.576 995.576 177.202 997.334 176.453C999.124 175.672 1000.46 174.598 1001.34 173.23C1002.25 171.863 1002.71 170.301 1002.71 168.543Z" fill="url(#paint1_linear_4_6)"/>
<defs>
<linearGradient id="paint0_linear_4_6" x1="0" y1="150" x2="300" y2="150" gradientUnits="userSpaceOnUse">
<stop stop-color="#A1773D"/>
<stop offset="0.5" stop-color="#F5E6A3"/>
<stop offset="1" stop-color="#A1773D"/>
</linearGradient>
<linearGradient id="paint1_linear_4_6" x1="330" y1="152.5" x2="1050" y2="152.5" gradientUnits="userSpaceOnUse">
<stop stop-color="#A1773D"/>
<stop offset="0.5" stop-color="#F5E6A3"/>
<stop offset="1" stop-color="#A1773D"/>
</linearGradient>
</defs>
</svg>
