<svg width="24" height="24" viewBox="0 0 24 24" fill="none" xmlns="http://www.w3.org/2000/svg">
<path fill-rule="evenodd" clip-rule="evenodd" d="M11.79 22.101L11.86 22.141L11.888 22.157C11.999 22.217 12.1233 22.2485 12.2495 22.2485C12.3757 22.2485 12.5 22.217 12.611 22.157L12.639 22.142L12.71 22.101C13.1011 21.8691 13.4828 21.6216 13.854 21.359C14.8151 20.6805 15.713 19.9167 16.537 19.077C18.481 17.087 20.5 14.097 20.5 10.25C20.5 8.06196 19.6308 5.96354 18.0836 4.41637C16.5365 2.86919 14.438 2 12.25 2C10.062 2 7.96354 2.86919 6.41637 4.41637C4.86919 5.96354 4 8.06196 4 10.25C4 14.096 6.02 17.087 7.963 19.077C8.78664 19.9167 9.68427 20.6804 10.645 21.359C11.0166 21.6216 11.3985 21.8691 11.79 22.101ZM12.25 13.25C13.0456 13.25 13.8087 12.9339 14.3713 12.3713C14.9339 11.8087 15.25 11.0456 15.25 10.25C15.25 9.45435 14.9339 8.69129 14.3713 8.12868C13.8087 7.56607 13.0456 7.25 12.25 7.25C11.4544 7.25 10.6913 7.56607 10.1287 8.12868C9.56607 8.69129 9.25 9.45435 9.25 10.25C9.25 11.0456 9.56607 11.8087 10.1287 12.3713C10.6913 12.9339 11.4544 13.25 12.25 13.25Z" fill="#375DD9"/>
</svg>
