<svg width="64" height="64" viewBox="0 0 64 64" fill="none" xmlns="http://www.w3.org/2000/svg">
<path d="M6 29.9998L29.8773 6.11982C31.0507 4.94915 32.9493 4.94915 34.12 6.11982L58 29.9998M12 23.9998V50.9998C12 52.6558 13.344 53.9998 15 53.9998H26M38 53.9998H49C50.656 53.9998 52 52.6558 52 50.9998V23.9998M22 53.9998H44" stroke="#375DD9" stroke-width="3" stroke-linecap="round" stroke-linejoin="round"/>
<circle cx="32" cy="48" r="13.3043" fill="white" stroke="#375DD9" stroke-width="2.6087"/>
<path d="M32 40V48M32 56V48M28 52.2427L29.172 53.1213C30.7333 54.2933 33.2653 54.2933 34.828 53.1213C36.3907 51.9493 36.3907 50.0507 34.828 48.8787C34.048 48.292 33.024 48 32 48M32 48C31.0333 48 30.0667 47.7067 29.3293 47.1213C27.8547 45.9493 27.8547 44.0507 29.3293 42.8787C30.804 41.7067 33.196 41.7067 34.6707 42.8787L35.224 43.3187" stroke="#375DD9" stroke-width="2.08696" stroke-linecap="round" stroke-linejoin="round"/>
</svg>
