<svg width="20" height="20" viewBox="0 0 20 20" fill="none" xmlns="http://www.w3.org/2000/svg">
<path d="M1.25 7.2251V14.3751C1.25 15.0382 1.51339 15.6741 1.98224 16.1428C2.45108 16.6117 3.08696 16.8751 3.75 16.8751H16.25C16.913 16.8751 17.5489 16.6117 18.0177 16.1428C18.4866 15.6741 18.75 15.0382 18.75 14.3751V7.2251L11.31 11.8026C10.916 12.045 10.4625 12.1733 10 12.1733C9.53745 12.1733 9.08396 12.045 8.69 11.8026L1.25 7.2251Z" fill="#425862"/>
<path d="M18.75 5.75666V5.625C18.75 4.96196 18.4866 4.32607 18.0177 3.85724C17.5489 3.38839 16.913 3.125 16.25 3.125H3.75C3.08696 3.125 2.45108 3.38839 1.98224 3.85724C1.51339 4.32607 1.25 4.96196 1.25 5.625V5.75666L9.345 10.7383C9.54199 10.8595 9.76873 10.9237 10 10.9237C10.2313 10.9237 10.458 10.8595 10.655 10.7383L18.75 5.75666Z" fill="#425862"/>
</svg>
