<svg width="20" height="20" viewBox="0 0 20 20" fill="none" xmlns="http://www.w3.org/2000/svg">
<path fill-rule="evenodd" clip-rule="evenodd" d="M1.25 3.75C1.25 3.08696 1.51339 2.45108 1.98224 1.98224C2.45108 1.51339 3.08696 1.25 3.75 1.25H4.89334C5.61 1.25 6.235 1.73834 6.40916 2.43334L7.33 6.11916C7.40462 6.4175 7.38955 6.73121 7.28667 7.02102C7.1838 7.31082 6.99769 7.56382 6.75166 7.74834L5.67416 8.55666C5.56166 8.64084 5.5375 8.76416 5.56916 8.85C6.03949 10.129 6.78216 11.2906 7.74579 12.2542C8.70941 13.2179 9.87096 13.9605 11.15 14.4309C11.2358 14.4625 11.3583 14.4384 11.4433 14.3259L12.2517 13.2484C12.4362 13.0022 12.6891 12.8163 12.979 12.7134C13.2687 12.6105 13.5825 12.5954 13.8809 12.67L17.5666 13.5909C18.2616 13.765 18.75 14.39 18.75 15.1075V16.25C18.75 16.913 18.4866 17.5489 18.0177 18.0177C17.5489 18.4866 16.913 18.75 16.25 18.75H14.375C7.12666 18.75 1.25 12.8734 1.25 5.625V3.75Z" fill="#425862"/>
</svg>
